<svg width="144" height="43" viewBox="0 0 144 43" fill="none" xmlns="http://www.w3.org/2000/svg">
<mask id="path-1-outside-1_1_1591" maskUnits="userSpaceOnUse" x="0.0720215" y="0" width="144" height="43" fill="black">
<rect fill="white" x="0.0720215" width="144" height="43"/>
<path d="M6.78402 21.928C6.78402 22.696 6.97602 23.448 7.36002 24.184C7.77602 24.888 8.33602 25.24 9.04002 25.24C9.77602 25.24 10.336 25.16 10.72 25C11.136 24.808 11.376 24.712 11.44 24.712C11.632 24.712 11.728 24.84 11.728 25.096C11.728 25.352 11.536 25.608 11.152 25.864C10.8 26.088 10.144 26.2 9.18402 26.2C8.25602 26.2 7.48802 25.816 6.88002 25.048C6.27202 24.28 5.92002 23.432 5.82402 22.504V37H1.07202V14.776H5.82402V21.784C5.95202 19.768 6.94402 18.024 8.80002 16.552C10.656 15.048 12.592 14.296 14.608 14.296C16.656 14.296 18.112 14.92 18.976 16.168C19.872 17.384 20.432 19.144 20.656 21.448C20.784 19.528 21.776 17.864 23.632 16.456C25.52 15.016 27.456 14.296 29.44 14.296C31.552 14.296 33.104 15.032 34.096 16.504C35.12 17.944 35.632 21.032 35.632 25.768V37H30.832V27.016C30.832 23.24 30.624 20.424 30.208 18.568C29.824 16.712 29.072 15.784 27.952 15.784C26.544 15.784 25.136 16.44 23.728 17.752C22.32 19.064 21.616 20.456 21.616 21.928C21.616 22.696 21.808 23.448 22.192 24.184C22.608 24.888 23.264 25.24 24.16 25.24C24.704 25.24 25.168 25.16 25.552 25C25.968 24.808 26.208 24.712 26.272 24.712C26.464 24.712 26.56 24.84 26.56 25.096C26.56 25.352 26.368 25.608 25.984 25.864C25.632 26.088 25.008 26.2 24.112 26.2C23.248 26.2 22.512 25.896 21.904 25.288C21.296 24.648 20.912 23.832 20.752 22.84C20.784 23.448 20.8 24.424 20.8 25.768V37H16V27.016C16 23.24 15.792 20.424 15.376 18.568C14.992 16.712 14.24 15.784 13.12 15.784C11.712 15.784 10.304 16.44 8.89602 17.752C7.48802 19.064 6.78402 20.456 6.78402 21.928Z"/>
<path d="M48.3411 37.48C46.0371 37.48 43.9891 36.84 42.1971 35.56C40.4371 34.248 39.5571 32.44 39.5571 30.136C39.5571 28.792 39.8771 27.624 40.5171 26.632C41.1891 25.64 42.0371 24.904 43.0611 24.424C44.9491 23.464 46.7891 22.984 48.5811 22.984C50.3731 22.984 52.4051 23.464 54.6771 24.424C54.6451 20.712 54.1811 18.248 53.2851 17.032C52.4211 15.784 51.0771 15.16 49.2531 15.16C47.4291 15.16 45.8451 15.496 44.5011 16.168C43.1891 16.84 42.5331 17.736 42.5331 18.856C42.5331 19.24 42.3571 19.432 42.0051 19.432C41.6851 19.432 41.5251 19.256 41.5251 18.904C41.5251 17.56 42.2611 16.456 43.7331 15.592C45.2371 14.696 47.4451 14.248 50.3571 14.248C56.4371 14.248 59.4771 17.832 59.4771 25V37H54.6771V33.208C54.4531 34.456 53.7331 35.48 52.5171 36.28C51.3011 37.08 49.9091 37.48 48.3411 37.48ZM52.5651 28.504C53.7171 29.304 54.4211 30.408 54.6771 31.816V25.288C52.3731 24.36 50.4851 23.896 49.0131 23.896C47.5731 23.896 46.4371 24.504 45.6051 25.72C44.7731 26.936 44.3571 28.424 44.3571 30.184C44.3571 31.944 44.6931 33.448 45.3651 34.696C46.0691 35.912 47.1091 36.52 48.4851 36.52C49.8931 36.52 51.1251 36.168 52.1811 35.464C53.2371 34.728 53.7651 33.864 53.7651 32.872C53.7651 31.144 53.1891 29.96 52.0371 29.32C51.5571 29.032 51.3171 28.76 51.3171 28.504C51.3171 28.248 51.4291 28.12 51.6531 28.12C51.8771 28.12 52.1811 28.248 52.5651 28.504Z"/>
<path d="M81.0816 16.6C81.0816 16.952 80.9377 17.224 80.6497 17.416C80.3937 17.608 80.0576 17.704 79.6416 17.704C79.2256 17.704 78.8896 17.592 78.6336 17.368C78.3776 17.112 78.2016 16.84 78.1056 16.552C78.0416 16.264 77.8496 16.008 77.5296 15.784C77.2096 15.528 76.7616 15.4 76.1856 15.4C74.7776 15.4 73.4656 16.424 72.2496 18.472C71.0336 20.52 70.3296 22.84 70.1376 25.432V37H65.3376V14.776H70.1376V20.44C70.9056 18.584 71.8976 17.048 73.1136 15.832C74.3616 14.584 75.6097 13.96 76.8577 13.96C78.1057 13.96 79.1136 14.184 79.8816 14.632C80.6816 15.048 81.0816 15.704 81.0816 16.6Z"/>
<path d="M102.669 41.32C100.941 41.32 99.5973 40.744 98.6373 39.592C97.7093 38.472 97.1013 37.08 96.8133 35.416C96.5573 33.752 96.3333 32.072 96.1413 30.376C95.7253 26.184 94.4773 23.896 92.3973 23.512L88.6533 28.456V37H83.8533V1H88.6533V26.872L94.7013 18.856C95.9173 17.224 97.3413 15.896 98.9733 14.872C100.605 13.848 102.285 13.336 104.013 13.336C104.621 13.336 104.925 13.48 104.925 13.768C104.925 14.152 104.733 14.344 104.349 14.344C103.453 14.344 102.669 14.408 101.997 14.536C101.357 14.632 100.397 15.096 99.1173 15.928C97.8373 16.76 96.5893 17.976 95.3733 19.576L93.0213 22.648C93.7253 22.584 94.1893 22.552 94.4133 22.552C96.0453 22.552 97.3573 23 98.3493 23.896C99.3733 24.76 100.029 25.848 100.317 27.16C100.637 28.472 100.877 29.912 101.037 31.48C101.229 33.016 101.341 34.44 101.373 35.752C101.437 37.064 101.677 38.152 102.093 39.016C102.509 39.912 103.101 40.36 103.869 40.36C104.637 40.36 105.309 40.136 105.885 39.688C106.461 39.272 106.909 38.84 107.229 38.392C107.549 37.976 107.773 37.768 107.901 37.768C108.029 37.768 108.093 37.832 108.093 37.96C108.093 38.12 108.045 38.296 107.949 38.488C106.989 40.376 105.229 41.32 102.669 41.32Z"/>
<path d="M113.436 35.32C113.884 35.64 114.444 35.912 115.116 36.136C115.82 36.36 116.668 36.472 117.66 36.472C118.652 36.472 119.708 36.248 120.828 35.8C121.948 35.32 122.732 34.616 123.18 33.688H124.572C123.324 36.216 120.7 37.48 116.7 37.48C113.628 37.48 111.02 36.392 108.876 34.216C106.764 32.008 105.708 29.256 105.708 25.96C105.708 22.632 106.828 19.864 109.068 17.656C111.308 15.416 113.74 14.296 116.364 14.296C119.02 14.296 121.1 15.032 122.604 16.504C124.14 17.944 124.908 19.656 124.908 21.64C124.908 23.624 124.092 25.384 122.46 26.92C120.828 28.456 118.684 29.224 116.028 29.224C113.372 29.224 111.516 28.088 110.46 25.816C110.492 26.04 110.524 26.52 110.556 27.256C110.62 27.992 110.668 28.568 110.7 28.984C110.732 29.4 110.812 29.976 110.94 30.712C111.1 31.448 111.26 32.04 111.42 32.488C111.612 32.936 111.884 33.448 112.236 34.024C112.588 34.568 112.988 35 113.436 35.32ZM120.78 21.4C120.78 17.272 119.212 15.208 116.076 15.208C114.54 15.208 113.276 15.96 112.284 17.464C111.324 18.936 110.78 20.728 110.652 22.84C111.036 21.944 111.612 21.224 112.38 20.68C113.18 20.136 113.996 19.864 114.828 19.864C115.692 19.864 116.124 20.024 116.124 20.344C116.124 20.632 115.932 20.776 115.548 20.776C114.076 20.872 112.988 21.24 112.284 21.88C111.612 22.52 111.276 23.384 111.276 24.472C111.276 25.56 111.66 26.488 112.428 27.256C113.228 27.992 114.156 28.36 115.212 28.36C116.94 28.36 118.3 27.672 119.292 26.296C120.284 24.888 120.78 23.256 120.78 21.4Z"/>
<path d="M126.438 15.736V14.776H130.854V8.2H135.654V14.776H140.694V15.736H135.654V30.568C135.654 34.536 136.518 36.52 138.246 36.52C138.918 36.52 139.542 36.312 140.118 35.896C140.694 35.448 141.142 35.016 141.462 34.6C141.782 34.152 142.006 33.928 142.134 33.928C142.262 33.928 142.326 34.008 142.326 34.168C142.326 34.296 142.278 34.456 142.182 34.648C141.222 36.536 139.462 37.48 136.902 37.48C134.854 37.48 133.334 36.696 132.342 35.128C131.35 33.56 130.854 31.464 130.854 28.84V15.736H126.438Z"/>
</mask>
<path d="M6.78402 21.928C6.78402 22.696 6.97602 23.448 7.36002 24.184C7.77602 24.888 8.33602 25.24 9.04002 25.24C9.77602 25.24 10.336 25.16 10.72 25C11.136 24.808 11.376 24.712 11.44 24.712C11.632 24.712 11.728 24.84 11.728 25.096C11.728 25.352 11.536 25.608 11.152 25.864C10.8 26.088 10.144 26.2 9.18402 26.2C8.25602 26.2 7.48802 25.816 6.88002 25.048C6.27202 24.28 5.92002 23.432 5.82402 22.504V37H1.07202V14.776H5.82402V21.784C5.95202 19.768 6.94402 18.024 8.80002 16.552C10.656 15.048 12.592 14.296 14.608 14.296C16.656 14.296 18.112 14.92 18.976 16.168C19.872 17.384 20.432 19.144 20.656 21.448C20.784 19.528 21.776 17.864 23.632 16.456C25.52 15.016 27.456 14.296 29.44 14.296C31.552 14.296 33.104 15.032 34.096 16.504C35.12 17.944 35.632 21.032 35.632 25.768V37H30.832V27.016C30.832 23.24 30.624 20.424 30.208 18.568C29.824 16.712 29.072 15.784 27.952 15.784C26.544 15.784 25.136 16.44 23.728 17.752C22.32 19.064 21.616 20.456 21.616 21.928C21.616 22.696 21.808 23.448 22.192 24.184C22.608 24.888 23.264 25.24 24.16 25.24C24.704 25.24 25.168 25.16 25.552 25C25.968 24.808 26.208 24.712 26.272 24.712C26.464 24.712 26.56 24.84 26.56 25.096C26.56 25.352 26.368 25.608 25.984 25.864C25.632 26.088 25.008 26.2 24.112 26.2C23.248 26.2 22.512 25.896 21.904 25.288C21.296 24.648 20.912 23.832 20.752 22.84C20.784 23.448 20.8 24.424 20.8 25.768V37H16V27.016C16 23.24 15.792 20.424 15.376 18.568C14.992 16.712 14.24 15.784 13.12 15.784C11.712 15.784 10.304 16.44 8.89602 17.752C7.48802 19.064 6.78402 20.456 6.78402 21.928Z" fill="white"/>
<path d="M48.3411 37.48C46.0371 37.48 43.9891 36.84 42.1971 35.56C40.4371 34.248 39.5571 32.44 39.5571 30.136C39.5571 28.792 39.8771 27.624 40.5171 26.632C41.1891 25.64 42.0371 24.904 43.0611 24.424C44.9491 23.464 46.7891 22.984 48.5811 22.984C50.3731 22.984 52.4051 23.464 54.6771 24.424C54.6451 20.712 54.1811 18.248 53.2851 17.032C52.4211 15.784 51.0771 15.16 49.2531 15.16C47.4291 15.16 45.8451 15.496 44.5011 16.168C43.1891 16.84 42.5331 17.736 42.5331 18.856C42.5331 19.24 42.3571 19.432 42.0051 19.432C41.6851 19.432 41.5251 19.256 41.5251 18.904C41.5251 17.56 42.2611 16.456 43.7331 15.592C45.2371 14.696 47.4451 14.248 50.3571 14.248C56.4371 14.248 59.4771 17.832 59.4771 25V37H54.6771V33.208C54.4531 34.456 53.7331 35.48 52.5171 36.28C51.3011 37.08 49.9091 37.48 48.3411 37.48ZM52.5651 28.504C53.7171 29.304 54.4211 30.408 54.6771 31.816V25.288C52.3731 24.36 50.4851 23.896 49.0131 23.896C47.5731 23.896 46.4371 24.504 45.6051 25.72C44.7731 26.936 44.3571 28.424 44.3571 30.184C44.3571 31.944 44.6931 33.448 45.3651 34.696C46.0691 35.912 47.1091 36.52 48.4851 36.52C49.8931 36.52 51.1251 36.168 52.1811 35.464C53.2371 34.728 53.7651 33.864 53.7651 32.872C53.7651 31.144 53.1891 29.96 52.0371 29.32C51.5571 29.032 51.3171 28.76 51.3171 28.504C51.3171 28.248 51.4291 28.12 51.6531 28.12C51.8771 28.12 52.1811 28.248 52.5651 28.504Z" fill="white"/>
<path d="M81.0816 16.6C81.0816 16.952 80.9377 17.224 80.6497 17.416C80.3937 17.608 80.0576 17.704 79.6416 17.704C79.2256 17.704 78.8896 17.592 78.6336 17.368C78.3776 17.112 78.2016 16.84 78.1056 16.552C78.0416 16.264 77.8496 16.008 77.5296 15.784C77.2096 15.528 76.7616 15.4 76.1856 15.4C74.7776 15.4 73.4656 16.424 72.2496 18.472C71.0336 20.52 70.3296 22.84 70.1376 25.432V37H65.3376V14.776H70.1376V20.44C70.9056 18.584 71.8976 17.048 73.1136 15.832C74.3616 14.584 75.6097 13.96 76.8577 13.96C78.1057 13.96 79.1136 14.184 79.8816 14.632C80.6816 15.048 81.0816 15.704 81.0816 16.6Z" fill="white"/>
<path d="M102.669 41.32C100.941 41.32 99.5973 40.744 98.6373 39.592C97.7093 38.472 97.1013 37.08 96.8133 35.416C96.5573 33.752 96.3333 32.072 96.1413 30.376C95.7253 26.184 94.4773 23.896 92.3973 23.512L88.6533 28.456V37H83.8533V1H88.6533V26.872L94.7013 18.856C95.9173 17.224 97.3413 15.896 98.9733 14.872C100.605 13.848 102.285 13.336 104.013 13.336C104.621 13.336 104.925 13.48 104.925 13.768C104.925 14.152 104.733 14.344 104.349 14.344C103.453 14.344 102.669 14.408 101.997 14.536C101.357 14.632 100.397 15.096 99.1173 15.928C97.8373 16.76 96.5893 17.976 95.3733 19.576L93.0213 22.648C93.7253 22.584 94.1893 22.552 94.4133 22.552C96.0453 22.552 97.3573 23 98.3493 23.896C99.3733 24.76 100.029 25.848 100.317 27.16C100.637 28.472 100.877 29.912 101.037 31.48C101.229 33.016 101.341 34.44 101.373 35.752C101.437 37.064 101.677 38.152 102.093 39.016C102.509 39.912 103.101 40.36 103.869 40.36C104.637 40.36 105.309 40.136 105.885 39.688C106.461 39.272 106.909 38.84 107.229 38.392C107.549 37.976 107.773 37.768 107.901 37.768C108.029 37.768 108.093 37.832 108.093 37.96C108.093 38.12 108.045 38.296 107.949 38.488C106.989 40.376 105.229 41.32 102.669 41.32Z" fill="white"/>
<path d="M113.436 35.32C113.884 35.64 114.444 35.912 115.116 36.136C115.82 36.36 116.668 36.472 117.66 36.472C118.652 36.472 119.708 36.248 120.828 35.8C121.948 35.32 122.732 34.616 123.18 33.688H124.572C123.324 36.216 120.7 37.48 116.7 37.48C113.628 37.48 111.02 36.392 108.876 34.216C106.764 32.008 105.708 29.256 105.708 25.96C105.708 22.632 106.828 19.864 109.068 17.656C111.308 15.416 113.74 14.296 116.364 14.296C119.02 14.296 121.1 15.032 122.604 16.504C124.14 17.944 124.908 19.656 124.908 21.64C124.908 23.624 124.092 25.384 122.46 26.92C120.828 28.456 118.684 29.224 116.028 29.224C113.372 29.224 111.516 28.088 110.46 25.816C110.492 26.04 110.524 26.52 110.556 27.256C110.62 27.992 110.668 28.568 110.7 28.984C110.732 29.4 110.812 29.976 110.94 30.712C111.1 31.448 111.26 32.04 111.42 32.488C111.612 32.936 111.884 33.448 112.236 34.024C112.588 34.568 112.988 35 113.436 35.32ZM120.78 21.4C120.78 17.272 119.212 15.208 116.076 15.208C114.54 15.208 113.276 15.96 112.284 17.464C111.324 18.936 110.78 20.728 110.652 22.84C111.036 21.944 111.612 21.224 112.38 20.68C113.18 20.136 113.996 19.864 114.828 19.864C115.692 19.864 116.124 20.024 116.124 20.344C116.124 20.632 115.932 20.776 115.548 20.776C114.076 20.872 112.988 21.24 112.284 21.88C111.612 22.52 111.276 23.384 111.276 24.472C111.276 25.56 111.66 26.488 112.428 27.256C113.228 27.992 114.156 28.36 115.212 28.36C116.94 28.36 118.3 27.672 119.292 26.296C120.284 24.888 120.78 23.256 120.78 21.4Z" fill="white"/>
<path d="M126.438 15.736V14.776H130.854V8.2H135.654V14.776H140.694V15.736H135.654V30.568C135.654 34.536 136.518 36.52 138.246 36.52C138.918 36.52 139.542 36.312 140.118 35.896C140.694 35.448 141.142 35.016 141.462 34.6C141.782 34.152 142.006 33.928 142.134 33.928C142.262 33.928 142.326 34.008 142.326 34.168C142.326 34.296 142.278 34.456 142.182 34.648C141.222 36.536 139.462 37.48 136.902 37.48C134.854 37.48 133.334 36.696 132.342 35.128C131.35 33.56 130.854 31.464 130.854 28.84V15.736H126.438Z" fill="white"/>
<path d="M6.78402 21.928C6.78402 22.696 6.97602 23.448 7.36002 24.184C7.77602 24.888 8.33602 25.24 9.04002 25.24C9.77602 25.24 10.336 25.16 10.72 25C11.136 24.808 11.376 24.712 11.44 24.712C11.632 24.712 11.728 24.84 11.728 25.096C11.728 25.352 11.536 25.608 11.152 25.864C10.8 26.088 10.144 26.2 9.18402 26.2C8.25602 26.2 7.48802 25.816 6.88002 25.048C6.27202 24.28 5.92002 23.432 5.82402 22.504V37H1.07202V14.776H5.82402V21.784C5.95202 19.768 6.94402 18.024 8.80002 16.552C10.656 15.048 12.592 14.296 14.608 14.296C16.656 14.296 18.112 14.92 18.976 16.168C19.872 17.384 20.432 19.144 20.656 21.448C20.784 19.528 21.776 17.864 23.632 16.456C25.52 15.016 27.456 14.296 29.44 14.296C31.552 14.296 33.104 15.032 34.096 16.504C35.12 17.944 35.632 21.032 35.632 25.768V37H30.832V27.016C30.832 23.24 30.624 20.424 30.208 18.568C29.824 16.712 29.072 15.784 27.952 15.784C26.544 15.784 25.136 16.44 23.728 17.752C22.32 19.064 21.616 20.456 21.616 21.928C21.616 22.696 21.808 23.448 22.192 24.184C22.608 24.888 23.264 25.24 24.16 25.24C24.704 25.24 25.168 25.16 25.552 25C25.968 24.808 26.208 24.712 26.272 24.712C26.464 24.712 26.56 24.84 26.56 25.096C26.56 25.352 26.368 25.608 25.984 25.864C25.632 26.088 25.008 26.2 24.112 26.2C23.248 26.2 22.512 25.896 21.904 25.288C21.296 24.648 20.912 23.832 20.752 22.84C20.784 23.448 20.8 24.424 20.8 25.768V37H16V27.016C16 23.24 15.792 20.424 15.376 18.568C14.992 16.712 14.24 15.784 13.12 15.784C11.712 15.784 10.304 16.44 8.89602 17.752C7.48802 19.064 6.78402 20.456 6.78402 21.928Z" stroke="black" stroke-width="2" mask="url(#path-1-outside-1_1_1591)"/>
<path d="M48.3411 37.48C46.0371 37.48 43.9891 36.84 42.1971 35.56C40.4371 34.248 39.5571 32.44 39.5571 30.136C39.5571 28.792 39.8771 27.624 40.5171 26.632C41.1891 25.64 42.0371 24.904 43.0611 24.424C44.9491 23.464 46.7891 22.984 48.5811 22.984C50.3731 22.984 52.4051 23.464 54.6771 24.424C54.6451 20.712 54.1811 18.248 53.2851 17.032C52.4211 15.784 51.0771 15.16 49.2531 15.16C47.4291 15.16 45.8451 15.496 44.5011 16.168C43.1891 16.84 42.5331 17.736 42.5331 18.856C42.5331 19.24 42.3571 19.432 42.0051 19.432C41.6851 19.432 41.5251 19.256 41.5251 18.904C41.5251 17.56 42.2611 16.456 43.7331 15.592C45.2371 14.696 47.4451 14.248 50.3571 14.248C56.4371 14.248 59.4771 17.832 59.4771 25V37H54.6771V33.208C54.4531 34.456 53.7331 35.48 52.5171 36.28C51.3011 37.08 49.9091 37.48 48.3411 37.48ZM52.5651 28.504C53.7171 29.304 54.4211 30.408 54.6771 31.816V25.288C52.3731 24.36 50.4851 23.896 49.0131 23.896C47.5731 23.896 46.4371 24.504 45.6051 25.72C44.7731 26.936 44.3571 28.424 44.3571 30.184C44.3571 31.944 44.6931 33.448 45.3651 34.696C46.0691 35.912 47.1091 36.52 48.4851 36.52C49.8931 36.52 51.1251 36.168 52.1811 35.464C53.2371 34.728 53.7651 33.864 53.7651 32.872C53.7651 31.144 53.1891 29.96 52.0371 29.32C51.5571 29.032 51.3171 28.76 51.3171 28.504C51.3171 28.248 51.4291 28.12 51.6531 28.12C51.8771 28.12 52.1811 28.248 52.5651 28.504Z" stroke="black" stroke-width="2" mask="url(#path-1-outside-1_1_1591)"/>
<path d="M81.0816 16.6C81.0816 16.952 80.9377 17.224 80.6497 17.416C80.3937 17.608 80.0576 17.704 79.6416 17.704C79.2256 17.704 78.8896 17.592 78.6336 17.368C78.3776 17.112 78.2016 16.84 78.1056 16.552C78.0416 16.264 77.8496 16.008 77.5296 15.784C77.2096 15.528 76.7616 15.4 76.1856 15.4C74.7776 15.4 73.4656 16.424 72.2496 18.472C71.0336 20.52 70.3296 22.84 70.1376 25.432V37H65.3376V14.776H70.1376V20.44C70.9056 18.584 71.8976 17.048 73.1136 15.832C74.3616 14.584 75.6097 13.96 76.8577 13.96C78.1057 13.96 79.1136 14.184 79.8816 14.632C80.6816 15.048 81.0816 15.704 81.0816 16.6Z" stroke="black" stroke-width="2" mask="url(#path-1-outside-1_1_1591)"/>
<path d="M102.669 41.32C100.941 41.32 99.5973 40.744 98.6373 39.592C97.7093 38.472 97.1013 37.08 96.8133 35.416C96.5573 33.752 96.3333 32.072 96.1413 30.376C95.7253 26.184 94.4773 23.896 92.3973 23.512L88.6533 28.456V37H83.8533V1H88.6533V26.872L94.7013 18.856C95.9173 17.224 97.3413 15.896 98.9733 14.872C100.605 13.848 102.285 13.336 104.013 13.336C104.621 13.336 104.925 13.48 104.925 13.768C104.925 14.152 104.733 14.344 104.349 14.344C103.453 14.344 102.669 14.408 101.997 14.536C101.357 14.632 100.397 15.096 99.1173 15.928C97.8373 16.76 96.5893 17.976 95.3733 19.576L93.0213 22.648C93.7253 22.584 94.1893 22.552 94.4133 22.552C96.0453 22.552 97.3573 23 98.3493 23.896C99.3733 24.76 100.029 25.848 100.317 27.16C100.637 28.472 100.877 29.912 101.037 31.48C101.229 33.016 101.341 34.44 101.373 35.752C101.437 37.064 101.677 38.152 102.093 39.016C102.509 39.912 103.101 40.36 103.869 40.36C104.637 40.36 105.309 40.136 105.885 39.688C106.461 39.272 106.909 38.84 107.229 38.392C107.549 37.976 107.773 37.768 107.901 37.768C108.029 37.768 108.093 37.832 108.093 37.96C108.093 38.12 108.045 38.296 107.949 38.488C106.989 40.376 105.229 41.32 102.669 41.32Z" stroke="black" stroke-width="2" mask="url(#path-1-outside-1_1_1591)"/>
<path d="M113.436 35.32C113.884 35.64 114.444 35.912 115.116 36.136C115.82 36.36 116.668 36.472 117.66 36.472C118.652 36.472 119.708 36.248 120.828 35.8C121.948 35.32 122.732 34.616 123.18 33.688H124.572C123.324 36.216 120.7 37.48 116.7 37.48C113.628 37.48 111.02 36.392 108.876 34.216C106.764 32.008 105.708 29.256 105.708 25.96C105.708 22.632 106.828 19.864 109.068 17.656C111.308 15.416 113.74 14.296 116.364 14.296C119.02 14.296 121.1 15.032 122.604 16.504C124.14 17.944 124.908 19.656 124.908 21.64C124.908 23.624 124.092 25.384 122.46 26.92C120.828 28.456 118.684 29.224 116.028 29.224C113.372 29.224 111.516 28.088 110.46 25.816C110.492 26.04 110.524 26.52 110.556 27.256C110.62 27.992 110.668 28.568 110.7 28.984C110.732 29.4 110.812 29.976 110.94 30.712C111.1 31.448 111.26 32.04 111.42 32.488C111.612 32.936 111.884 33.448 112.236 34.024C112.588 34.568 112.988 35 113.436 35.32ZM120.78 21.4C120.78 17.272 119.212 15.208 116.076 15.208C114.54 15.208 113.276 15.96 112.284 17.464C111.324 18.936 110.78 20.728 110.652 22.84C111.036 21.944 111.612 21.224 112.38 20.68C113.18 20.136 113.996 19.864 114.828 19.864C115.692 19.864 116.124 20.024 116.124 20.344C116.124 20.632 115.932 20.776 115.548 20.776C114.076 20.872 112.988 21.24 112.284 21.88C111.612 22.52 111.276 23.384 111.276 24.472C111.276 25.56 111.66 26.488 112.428 27.256C113.228 27.992 114.156 28.36 115.212 28.36C116.94 28.36 118.3 27.672 119.292 26.296C120.284 24.888 120.78 23.256 120.78 21.4Z" stroke="black" stroke-width="2" mask="url(#path-1-outside-1_1_1591)"/>
<path d="M126.438 15.736V14.776H130.854V8.2H135.654V14.776H140.694V15.736H135.654V30.568C135.654 34.536 136.518 36.52 138.246 36.52C138.918 36.52 139.542 36.312 140.118 35.896C140.694 35.448 141.142 35.016 141.462 34.6C141.782 34.152 142.006 33.928 142.134 33.928C142.262 33.928 142.326 34.008 142.326 34.168C142.326 34.296 142.278 34.456 142.182 34.648C141.222 36.536 139.462 37.48 136.902 37.48C134.854 37.48 133.334 36.696 132.342 35.128C131.35 33.56 130.854 31.464 130.854 28.84V15.736H126.438Z" stroke="black" stroke-width="2" mask="url(#path-1-outside-1_1_1591)"/>
</svg>
